<?xml version="1.0" encoding="UTF-8" standalone="no"?>
<!-- Generator: Adobe Illustrator 24.0.1, SVG Export Plug-In . SVG Version: 6.00 Build 0)  -->

<svg
   version="1.1"
   id="Layer_1"
   x="0px"
   y="0px"
   width="1000px"
   height="1000px"
   viewBox="0 0 1000 1000"
   style="enable-background:new 0 0 1000 1000;"
   xml:space="preserve"
   sodipodi:docname="dress_3.946ae9c9.svg"
   inkscape:version="1.2.1 (9c6d41e410, 2022-07-14)"
   xmlns:inkscape="http://www.inkscape.org/namespaces/inkscape"
   xmlns:sodipodi="http://sodipodi.sourceforge.net/DTD/sodipodi-0.dtd"
   xmlns="http://www.w3.org/2000/svg"
   xmlns:svg="http://www.w3.org/2000/svg"><defs
   id="defs993" /><sodipodi:namedview
   id="namedview991"
   pagecolor="#ffffff"
   bordercolor="#000000"
   borderopacity="0.25"
   inkscape:showpageshadow="2"
   inkscape:pageopacity="0.0"
   inkscape:pagecheckerboard="0"
   inkscape:deskcolor="#d1d1d1"
   showgrid="false"
   inkscape:zoom="1.1511698"
   inkscape:cx="522.07763"
   inkscape:cy="222.38248"
   inkscape:window-width="1920"
   inkscape:window-height="1017"
   inkscape:window-x="-8"
   inkscape:window-y="-8"
   inkscape:window-maximized="1"
   inkscape:current-layer="illustration" />
<g
   id="illustration"
   style="fill:#000000"
   inkscape:label="illustration">
	
	
	
	
	
	
	
	
	
	
	
	
	
	
	
	
	
	
	
	
	
	
	
	
	
	
	
	
	
	
	
<path
   style="fill:#ececec"
   d="m 397.37012,277.69664 c 0,0 30.34544,-7.19668 45.99055,-13.29163 9.1687,-3.57191 22.72835,-8.54404 22.72835,-8.54404 0,0 6.19741,2.89778 12.48952,6.76057 l 13.75878,8.44665 c 0,0 9.15493,-5.97893 13.51523,-9.51133 3.72734,-3.01961 12.26786,-7.32148 12.26786,-7.32148 0,0 13.96071,3.34482 21.484,5.77734 17.35956,5.61289 55.06848,19.31589 55.06848,19.31589 L 500.30714,480.2514 Z"
   id="path1138"
   sodipodi:nodetypes="cscscscsccc" /><path
   style="fill:#999999"
   d="m 492.5018,271.35349 -9.21376,10.13513 c 0,0 -0.76227,19.23835 -1.14341,28.85753 -0.63953,16.1406 -1.27907,32.28121 -1.9186,48.42181 -1.12921,28.49903 -3.38762,85.49708 -3.38762,85.49708 l 17.50614,21.19165 21.19165,-20.5774 c 0,0 -5.02648,-57.00244 -7.53972,-85.50366 -1.42201,-16.12613 -2.84401,-32.25225 -4.26601,-48.37838 -0.87639,-9.93858 -2.62916,-29.81575 -2.62916,-29.81575 z"
   id="path1194"
   sodipodi:nodetypes="ccsscccsscc" /><path
   style="fill:#0000ff"
   d="m 154.17691,269.65603 c 0,0 43.74312,-0.92285 65.61467,-1.38428 24.46309,-0.5161 48.92617,-1.03219 73.38926,-1.54829 25.47304,-0.53741 50.94609,-1.07482 76.41913,-1.61222 25.24391,-0.53258 70.20348,-6.81885 70.20348,-6.81885 l 22.45924,54.75992 18.81312,55.0458 c 4.67007,13.66427 14.0102,40.99281 14.0102,40.99281 l 12.24963,-39.93714 c 6.25722,-20.40026 18.77167,-61.20079 18.77167,-61.20079 l 19.96151,-49.96773 c 0,0 43.63563,5.64146 68.5247,6.00518 l 75.15664,1.09833 c 29.10096,0.42527 58.20193,0.85055 87.3029,1.27582 19.0331,0.27815 57.09931,0.83444 57.09931,0.83444 l 0.61425,83.92877 c 0,0 -46.32092,-0.90502 -69.48298,-1.26179 -33.58401,-0.51731 -67.17315,-1.86643 -100.75592,-1.27431 -14.93109,0.26326 -44.74883,2.14541 -44.74883,2.14541 0,0 -2.90243,52.24365 -4.35364,78.36548 l -4.86012,87.4822 c 0,0 -38.9589,3.17244 -58.47429,4.17195 -19.2552,0.98619 -38.53296,1.73698 -57.81329,1.79962 -18.3989,0.0598 -36.80522,-0.42002 -55.18025,-1.35886 -17.1976,-0.87868 -51.50514,-3.99846 -51.50514,-3.99846 l -9.15726,-86.68866 -9.27027,-87.75852 c 0,0 -45.67591,-0.73788 -66.38144,-1.02604 -33.30114,-0.46347 -62.3054,-0.37878 -95.60976,-0.38259 -16.64239,-0.002 -49.92527,-0.43413 -49.92527,-0.43413 z"
   id="path985"
   sodipodi:nodetypes="cssscsscsccsssccsscscssscscsscc" /><path
   style="fill:#999999"
   d="m 433.96808,263.82065 -16.10009,12.24519 -13.9982,10.64656 40.94911,58.05216 50.57424,71.69737 50.82795,-78.50795 35.4803,-54.80223 -12.39957,-9.35945 -15.59058,-11.7681 3.41563,-0.73243 15.45799,10.4221 15.10534,10.18435 -38.10887,58.86891 -53.57394,82.75868 -54.05273,-76.56048 -43.306,-61.33878 15.87266,-11.71187 15.76125,-11.62966 z"
   id="path1466"
   sodipodi:nodetypes="ccccccccccccccccccc" /><path
   style="fill:#0000ff"
   d="m 413.92676,114.23163 170.2616,-2.60605 -0.43434,-12.16154 -42.99974,0.43434 -5.64643,-77.747 -84.26211,1.303022 -2.17171,74.272278 -36.91897,0.43434 z"
   id="path1904"
   sodipodi:nodetypes="ccccccccc" /></g>
<g
   id="skeleton_1_"
   sodipodi:insensitive="true"
   style="opacity:0.25">
	<circle
   id="rightShoulder"
   cx="392.79999"
   cy="294.29999"
   r="8.1999998" />
	<circle
   id="rightElbow"
   cx="289.29999"
   cy="294.39999"
   r="8.1999998" />
	
		<circle
   id="rightWrist"
   transform="matrix(0.9951,-0.09853767,0.09853767,0.9951,-29.0274,13.8698)"
   cx="125.9"
   cy="300.79999"
   r="8.1999998" />
	<circle
   id="rightHip"
   cx="443.10001"
   cy="510.10001"
   r="8.1999998" />
	<circle
   id="rightKnee"
   cx="449.5"
   cy="670.29999"
   r="8.1999998" />
	<circle
   id="rightAnkle"
   cx="449.5"
   cy="878.29999"
   r="8.1999998" />
	<circle
   id="leftShoulder"
   cx="605.70001"
   cy="294.29999"
   r="8.1999998" />
	<circle
   id="leftElbow"
   cx="710.09998"
   cy="294"
   r="8.1999998" />
	<circle
   id="leftWrist"
   cx="873.5"
   cy="300.29999"
   r="8.1999998" />
	<circle
   id="leftHip"
   cx="559.5"
   cy="509.29999"
   r="8.1999998" />
	<circle
   id="leftKnee"
   cx="559.5"
   cy="670.29999"
   r="8.1999998" />
	<circle
   id="leftAnkle"
   cx="559.5"
   cy="878.29999"
   r="8.1999998" />
	<polygon
   style="fill:none;stroke:#000000;stroke-miterlimit:10"
   points="443,510.4 559.4,509.6 605.6,294.6 392.7,294.6 "
   id="polygon886" />
	<polyline
   style="fill:none;stroke:#000000;stroke-miterlimit:10"
   points="391.7,294.6 289,294.6 125.7,300.9  "
   id="polyline888" />
	<polyline
   style="fill:none;stroke:#000000;stroke-miterlimit:10"
   points="607.1,294.2 710.3,294.2 873.6,300.6  "
   id="polyline890" />
	<polyline
   style="fill:none;stroke:#000000;stroke-miterlimit:10"
   points="443,510.4 449.4,670.6 449.4,878.6  "
   id="polyline892" />
	<polyline
   style="fill:none;stroke:#000000;stroke-miterlimit:10"
   points="559.4,509.6 559.4,670.6 559.4,878.6  "
   id="polyline894" />
	<circle
   id="rightEye0"
   cx="468.60001"
   cy="160.2"
   r="0.80000001" />
	<circle
   id="rightBrow1"
   cx="466.39999"
   cy="148.3"
   r="0.80000001" />
	<circle
   id="rightBrow4"
   cx="489.70001"
   cy="151.3"
   r="0.80000001" />
	<circle
   id="nose1"
   cx="497.60001"
   cy="161.2"
   r="0.80000001" />
	<circle
   id="rightBrow3"
   cx="479.89999"
   cy="147.3"
   r="0.80000001" />
	<circle
   id="rightEye1"
   cx="473.79999"
   cy="156.5"
   r="0.80000001" />
	<circle
   id="rightBrow0"
   cx="462.39999"
   cy="152"
   r="0.80000001" />
	<circle
   id="rightBrow2"
   cx="472.60001"
   cy="147.3"
   r="0.80000001" />
	<circle
   id="rightEye5"
   cx="473.79999"
   cy="162.5"
   r="0.80000001" />
	<circle
   id="rightEye2"
   cx="480.10001"
   cy="156.5"
   r="0.80000001" />
	<circle
   id="rightEye3"
   cx="485.29999"
   cy="160.7"
   r="0.80000001" />
	<circle
   id="nose0"
   cx="497.60001"
   cy="155.39999"
   r="0.80000001" />
	<circle
   id="nose3"
   cx="497.60001"
   cy="173.8"
   r="0.80000001" />
	<circle
   id="rightNose0"
   cx="486.89999"
   cy="178.3"
   r="0.80000001" />
	<circle
   id="rightMouthCorner"
   cx="480.89999"
   cy="200.39999"
   r="0.80000001" />
	<circle
   id="rightNose1"
   cx="492.10001"
   cy="178.3"
   r="0.80000001" />
	<circle
   id="rightUpperLipTop0"
   cx="487.79999"
   cy="197"
   r="0.80000001" />
	<circle
   id="nose2"
   cx="497.60001"
   cy="166.7"
   r="0.80000001" />
	<circle
   id="nose4"
   cx="497.60001"
   cy="179.10001"
   r="0.80000001" />
	<circle
   id="upperLipTopMid"
   cx="498.39999"
   cy="196.8"
   r="0.80000001" />
	<circle
   id="rightUpperLipTop1"
   cx="494.29999"
   cy="195.89999"
   r="0.80000001" />
	<path
   id="rightMiddleLip"
   d="m 484.5,199.9 c 0.4,0 0.8,0.4 0.8,0.8 0,0.4 -0.4,0.8 -0.8,0.8 -0.4,0 -0.8,-0.4 -0.8,-0.8 0,-0.4 0.4,-0.8 0.8,-0.8 z" />
	<circle
   id="lowerLipBottomMid"
   cx="498.39999"
   cy="210"
   r="0.80000001" />
	<circle
   id="upperLipBottomMid"
   cx="498.39999"
   cy="200.39999"
   r="0.80000001" />
	<circle
   id="lowerLipTopMid"
   cx="498.39999"
   cy="203.5"
   r="0.80000001" />
	<circle
   id="rightUpperLipBottom1"
   cx="494.5"
   cy="199.89999"
   r="0.80000001" />
	<circle
   id="rightLowerLipTop0"
   cx="494.5"
   cy="202.8"
   r="0.80000001" />
	<circle
   id="rightLowerLipBottom1"
   cx="494.29999"
   cy="209.5"
   r="0.80000001" />
	<circle
   id="rightLowerLipBottom0"
   cx="487.29999"
   cy="206.7"
   r="0.80000001" />
	<circle
   id="rightEye4"
   cx="480.10001"
   cy="161.7"
   r="0.80000001" />
	<circle
   id="jawMid"
   cx="498.39999"
   cy="235.8"
   r="0.80000001" />
	<circle
   id="rightJaw7"
   cx="483.39999"
   cy="232.60001"
   r="0.80000001" />
	<circle
   id="rightJaw6"
   cx="473.39999"
   cy="225.89999"
   r="0.80000001" />
	<circle
   id="rightJaw5"
   cx="461.79999"
   cy="213.39999"
   r="0.80000001" />
	<circle
   id="rightJaw4"
   cx="455"
   cy="193.39999"
   r="0.80000001" />
	<circle
   id="rightJaw3"
   cx="454.20001"
   cy="171.7"
   r="0.80000001" />
	<circle
   id="rightJaw2"
   cx="454.20001"
   cy="162.2"
   r="0.80000001" />
	<circle
   id="rightJaw1"
   cx="455"
   cy="150.5"
   r="0.80000001" />
	<circle
   id="rightJaw0"
   cx="457.5"
   cy="141.2"
   r="0.80000001" />
	<circle
   id="topMid"
   cx="498.60001"
   cy="115.1"
   r="0.80000001" />
	<circle
   id="leftTop0"
   cx="518.29999"
   cy="117.6"
   r="0.80000001" />
	<circle
   id="leftTop1"
   cx="530.90002"
   cy="127.1"
   r="0.80000001" />
	<circle
   id="leftEye0"
   cx="528.20001"
   cy="160.2"
   r="0.80000001" />
	<circle
   id="leftBrow1"
   cx="530.09998"
   cy="148.7"
   r="0.80000001" />
	<circle
   id="leftBrow4"
   cx="506.5"
   cy="150.8"
   r="0.80000001" />
	<circle
   id="leftBrow3"
   cx="516.5"
   cy="147.60001"
   r="0.80000001" />
	<circle
   id="leftEye1"
   cx="523"
   cy="156.5"
   r="0.80000001" />
	<circle
   id="leftBrow0"
   cx="534.09998"
   cy="151.60001"
   r="0.80000001" />
	<circle
   id="leftBrow2"
   cx="523.79999"
   cy="147.2"
   r="0.80000001" />
	<circle
   id="leftEye5"
   cx="523"
   cy="162.5"
   r="0.80000001" />
	<circle
   id="leftEye2"
   cx="516.70001"
   cy="156.5"
   r="0.80000001" />
	<circle
   id="leftEye3"
   cx="511.5"
   cy="160.7"
   r="0.80000001" />
	<circle
   id="leftNose0"
   cx="508"
   cy="178.3"
   r="0.80000001" />
	<circle
   id="leftMouthCorner"
   cx="515.90002"
   cy="200.39999"
   r="0.80000001" />
	<circle
   id="leftNose1"
   cx="503.20001"
   cy="178.3"
   r="0.80000001" />
	<circle
   id="leftUpperLipTop0"
   cx="509"
   cy="197"
   r="0.80000001" />
	<circle
   id="leftUpperLipTop1"
   cx="502.60001"
   cy="195.89999"
   r="0.80000001" />
	<path
   id="leftMiddleLip"
   d="m 512.3,199.9 c 0.4,0 0.8,0.4 0.8,0.8 0,0.4 -0.4,0.8 -0.8,0.8 -0.4,0 -0.8,-0.4 -0.8,-0.8 0,-0.4 0.4,-0.8 0.8,-0.8 z" />
	<circle
   id="leftUpperLipBottom1"
   cx="502.39999"
   cy="199.89999"
   r="0.80000001" />
	<circle
   id="leftLowerLipTop0"
   cx="502.39999"
   cy="202.8"
   r="0.80000001" />
	<circle
   id="leftLowerLipBottom1"
   cx="502.60001"
   cy="209.5"
   r="0.80000001" />
	<circle
   id="leftLowerLipBottom0"
   cx="509.5"
   cy="206.7"
   r="0.80000001" />
	<circle
   id="leftEye4"
   cx="516.70001"
   cy="161.7"
   r="0.80000001" />
	<circle
   id="leftJaw7"
   cx="513.20001"
   cy="233"
   r="0.80000001" />
	<circle
   id="leftJaw6"
   cx="523.20001"
   cy="226.3"
   r="0.80000001" />
	<circle
   id="leftJaw5"
   cx="534.79999"
   cy="213.7"
   r="0.80000001" />
	<circle
   id="leftJaw4"
   cx="541.59998"
   cy="193.7"
   r="0.80000001" />
	<circle
   id="leftJaw3"
   cx="542.40002"
   cy="172.10001"
   r="0.80000001" />
	<circle
   id="leftJaw2"
   cx="542.40002"
   cy="162.5"
   r="0.80000001" />
	<circle
   id="leftJaw1"
   cx="541.59998"
   cy="150.8"
   r="0.80000001" />
	<circle
   id="leftJaw0"
   cx="539.09998"
   cy="141.60001"
   r="0.80000001" />
	<polyline
   style="fill:none;stroke:#000000;stroke-miterlimit:10"
   points="498.4,115.1 478.6,117.6 466.1,127.1 457.5,141.2    455,150.5 454.2,162.2 454.2,171.7 455,193.4 461.8,213.4 473.4,225.9 483.4,232.6 498.4,235.8 513.2,233 523.2,226.3 534.8,213.7    541.6,193.7 542.4,172.1 542.4,162.5 541.6,150.8 539.1,141.6 530.9,127.1 518.3,117.6 498.4,115.1  "
   id="polyline967" />
	<polyline
   style="fill:none;stroke:#000000;stroke-miterlimit:10"
   points="462.4,152 466.4,148.3 472.6,147.3 479.9,147.3    489.7,151.3  "
   id="polyline969" />
	<polygon
   style="fill:none;stroke:#000000;stroke-miterlimit:10"
   points="473.8,156.5 480.1,156.5 485.3,160.7 480.1,161.7 473.8,162.5 468.6,160.2 "
   id="polygon971" />
	<polyline
   style="fill:none;stroke:#000000;stroke-miterlimit:10"
   points="486.9,178.3 492.1,178.3 497.6,179.1 497.6,173.8    497.6,166.7 497.6,161.2 497.6,155.4  "
   id="polyline973" />
	<polyline
   style="fill:none;stroke:#000000;stroke-miterlimit:10"
   points="533.9,151.6 529.9,148.7 523.6,147.2 516.3,147.6    506.3,150.8  "
   id="polyline975" />
	<polygon
   style="fill:none;stroke:#000000;stroke-miterlimit:10"
   points="522.7,156.5 516.4,156.5 511.3,160.7 516.4,161.7 522.7,162.5 528,160.2 "
   id="polygon977" />
	<polyline
   style="fill:none;stroke:#000000;stroke-miterlimit:10"
   points="508,178.3 503,178.3 497.6,179.1  "
   id="polyline979" />
	<polygon
   style="fill:none;stroke:#000000;stroke-miterlimit:10"
   points="487.8,197 494.3,195.9 498.4,196.8 502.6,195.9 509,197 515.9,200.4 509.5,206.7 502.4,209.5 498.4,210 494.3,209.5 487.3,206.7 480.9,200.4 "
   id="polygon981" />
	<polyline
   style="fill:none;stroke:#000000;stroke-miterlimit:10"
   points="480.9,200.4 484.5,200.7 494.5,199.9 498.4,200.4    502.4,199.9 512.3,200.7 515.9,200.4  "
   id="polyline983" />
	<polyline
   style="fill:none;stroke:#000000;stroke-miterlimit:10"
   points="480.9,200.4 484.5,200.7 494.5,202.8 498.4,203.6    502.4,202.8 512.3,200.7 515.9,200.4  "
   id="polyline985" />
	<circle
   id="rightTop0"
   cx="478.70001"
   cy="117.6"
   r="0.80000001" />
	<circle
   id="rightTop1"
   cx="466.10001"
   cy="127.1"
   r="0.80000001" />
</g>
</svg>
