<?xml version="1.0" encoding="UTF-8" standalone="no"?>
<!-- Generator: Adobe Illustrator 24.0.1, SVG Export Plug-In . SVG Version: 6.00 Build 0)  -->

<svg
   version="1.1"
   id="Layer_1"
   x="0px"
   y="0px"
   width="1000px"
   height="1000px"
   viewBox="0 0 1000 1000"
   style="enable-background:new 0 0 1000 1000;"
   xml:space="preserve"
   sodipodi:docname="dress_2.9507f4ce.svg"
   inkscape:version="1.2.1 (9c6d41e410, 2022-07-14)"
   xmlns:inkscape="http://www.inkscape.org/namespaces/inkscape"
   xmlns:sodipodi="http://sodipodi.sourceforge.net/DTD/sodipodi-0.dtd"
   xmlns="http://www.w3.org/2000/svg"
   xmlns:svg="http://www.w3.org/2000/svg"><defs
   id="defs993" /><sodipodi:namedview
   id="namedview991"
   pagecolor="#ffffff"
   bordercolor="#000000"
   borderopacity="0.25"
   inkscape:showpageshadow="2"
   inkscape:pageopacity="0.0"
   inkscape:pagecheckerboard="0"
   inkscape:deskcolor="#d1d1d1"
   showgrid="false"
   inkscape:zoom="1.1511698"
   inkscape:cx="521.20895"
   inkscape:cy="357.89681"
   inkscape:window-width="1920"
   inkscape:window-height="1017"
   inkscape:window-x="-8"
   inkscape:window-y="-8"
   inkscape:window-maximized="1"
   inkscape:current-layer="illustration" />
<g
   id="illustration"
   style="fill:#000000">
	
	
	
	
	
	
	
	
	
	
	
	
	
	
	
	
	
	
	
	
	
	
	
	
	
	
	
	
	
	
	
<path
   style="opacity:1;fill:#0000ff"
   d="m 423.16753,250.91764 c 0,0 27.50115,33.8758 39.49186,52.05942 12.72347,19.29484 34.26936,60.27611 34.26936,60.27611 l -1.12311,18.41344 c 0,0 -6.58988,40.50047 -12.58195,75.39693 -6.33756,36.90856 -25.14049,96.80042 -25.14049,96.80042 l -71.92195,13.90378 -42.17252,-43.30839 c 0,0 13.96669,-36.43998 25.67375,-70.63642 8.11497,-23.70392 12.62043,-41.46246 13.56449,-63.63738 0.67634,-15.88655 -3.80969,-38.26686 -7.69099,-49.35628 0,0 -77.30998,0.33357 -123.79088,0.83879 -50.57317,0.54969 -95.26334,0.60049 -95.26334,0.60049 l -4.28728,-49.34562 -3.02199,-35.11228 c 0,0 44.4108,1.36376 93.53745,0.31537 47.31209,-1.00967 86.84725,-3.84991 134.0982,-6.45788 22.15594,-1.22288 46.35939,-0.7505 46.35939,-0.7505 z"
   id="path1150"
   sodipodi:nodetypes="csccscccsscscscssc" /><path
   style="opacity:1;fill:#b3b3b3"
   d="m 493.47585,364.20089 c 0,0 -20.44074,5.91825 -25.89653,9.0396 -5.19122,2.96997 -19.07474,7.93134 -19.07474,7.93134 0,0 -7.82724,-51.554 -18.43729,-71.8541 -7.8753,-15.06773 -27.0835,-54.71008 -27.0835,-54.71008 l -9.46819,1.04859 c 0,0 25.04906,44.82914 32.0305,61.62343 9.012,21.67889 18.20257,72.05732 18.20257,72.05732 0,0 12.75231,-5.78162 24.38522,-9.80355 9.33441,-3.22724 23.75815,-7.22008 23.75815,-7.22008 z"
   id="path1152"
   sodipodi:nodetypes="cscsccscscc" /><path
   style="opacity:1;fill:#b3b3b3"
   d="m 191.64618,262.285 c 0,0 2.25303,30.1071 2.91885,37.78963 0.66506,7.67373 5.06642,38.99171 5.06642,38.99171 l 10.74938,-0.30712 c 0,0 -4.3914,-32.2493 -5.20504,-39.928 -0.82436,-7.77994 -0.32321,-36.54621 -0.32321,-36.54621 z"
   id="path1316"
   sodipodi:nodetypes="csccscc"
   inkscape:label="path1316" /><path
   style="fill:#0000ff"
   d="m 576.48905,249.92445 c 0,0 -27.50115,33.8758 -39.49186,52.05942 -12.72347,19.29484 -34.26936,60.27611 -34.26936,60.27611 l 1.12311,18.41344 c 0,0 6.58988,40.50047 12.58195,75.39693 6.33756,36.90856 25.14049,96.80042 25.14049,96.80042 l 71.92195,13.90378 42.17252,-43.30839 c 0,0 -13.96669,-36.43998 -25.67375,-70.63642 -8.11497,-23.70392 -12.62043,-41.46246 -13.56449,-63.63738 -0.67634,-15.88655 3.80969,-38.26686 7.69099,-49.35628 0,0 77.30998,0.33357 123.79088,0.83879 50.57317,0.54969 95.26334,0.60049 95.26334,0.60049 l 4.28728,-49.34562 3.02199,-35.11228 c 0,0 -44.4108,1.36376 -93.53745,0.31537 -47.31209,-1.00967 -86.84725,-3.84991 -134.0982,-6.45788 -22.15594,-1.22288 -46.35939,-0.7505 -46.35939,-0.7505 z"
   id="path1150-7"
   sodipodi:nodetypes="csccscccsscscscssc" /><path
   style="fill:#b3b3b3"
   d="m 506.18073,363.2077 c 0,0 20.44074,5.91825 25.89653,9.0396 5.19122,2.96997 19.07474,7.93134 19.07474,7.93134 0,0 7.82724,-51.554 18.43729,-71.8541 7.8753,-15.06773 27.0835,-54.71008 27.0835,-54.71008 l 9.46819,1.04859 c 0,0 -25.04906,44.82914 -32.0305,61.62343 -9.012,21.67889 -18.20257,72.05732 -18.20257,72.05732 0,0 -12.75231,-5.78162 -24.38522,-9.80355 -9.33441,-3.22724 -23.75815,-7.22008 -23.75815,-7.22008 z"
   id="path1152-1"
   sodipodi:nodetypes="cscsccscscc" /><path
   style="fill:#b3b3b3"
   d="m 808.0104,261.29181 c 0,0 -2.25303,30.1071 -2.91885,37.78963 -0.66506,7.67373 -5.06642,38.99171 -5.06642,38.99171 l -10.74938,-0.30712 c 0,0 4.3914,-32.2493 5.20504,-39.928 0.82436,-7.77994 0.32321,-36.54621 0.32321,-36.54621 z"
   id="path1316-0"
   sodipodi:nodetypes="csccscc"
   inkscape:label="path1316" /><path
   style="fill:#b3b3b3"
   d="m 489.93641,291.2255 c -2.85593,2.49974 -2.59376,6.94642 -2.75399,11.27936 -0.12835,3.47099 -1.22805,6.86899 0.79945,9.13465 3.38157,3.7788 8.43229,3.49846 14.3415,3.33027 5.0585,-0.14398 11.03624,0.3745 13.89066,-2.89592 1.74849,-2.00332 -0.39714,-5.92506 -0.52658,-8.89998 -0.19849,-4.5619 0.52853,-8.36486 -2.51381,-11.0797 -3.01606,-2.69139 -7.61992,-2.24578 -12.16244,-2.34949 -4.16781,-0.0952 -8.28398,-0.96193 -11.07479,1.48081 z"
   id="path834"
   sodipodi:nodetypes="sssssssss" /><path
   style="fill:#b3b3b3;stroke-width:1.3511"
   d="m 485.05008,294.27924 c 1.53554,3.51301 -0.11844,4.74416 -0.23195,9.23366 -0.10366,4.09997 0.17683,7.05821 -1.72259,9.25441 -6.01831,6.95866 -7.7292,7.62061 -11.5395,11.056 -4.36029,3.93124 -9.87723,10.37737 -14.62953,5.46836 -3.81626,-3.94211 -2.41788,-15.38848 -3.62682,-23.08273 -1.46949,-9.35255 -7.98113,-20.83733 -4.40848,-28.05763 2.62557,-5.30624 7.71061,2.52853 11.56592,3.79279 4.69684,1.54022 9.39367,3.08045 14.09051,4.62067 3.53701,1.15988 8.2611,2.58672 10.50244,7.71447 z"
   id="path836"
   sodipodi:nodetypes="ssssssssss" /><path
   style="fill:#b3b3b3;stroke-width:1.40567"
   d="m 519.90592,292.9157 c -1.51987,4.09558 -0.84175,4.94445 -0.44823,9.96321 0.40277,5.13678 0.13779,5.54515 1.85983,9.47481 2.80092,6.39166 6.22804,7.95611 10.31933,10.43227 0,0 9.19795,7.38269 12.80933,3.44438 3.9801,-4.34039 5.5257,-19.1417 5.5257,-19.1417 4.81799,-17.5064 6.14304,-20.0695 2.72677,-27.63097 -2.83685,-6.27897 -7.11875,0.82737 -11.32964,2.09925 -4.18926,1.26536 -8.37852,4.26807 -12.56778,5.53345 -2.9651,0.8956 -7.12161,1.04572 -8.89531,5.8253 z"
   id="path838"
   sodipodi:nodetypes="ssssssssss" /></g>
<g
   id="skeleton_1_"
   sodipodi:insensitive="true"
   style="opacity:0.25">
	<circle
   id="rightShoulder"
   cx="392.79999"
   cy="294.29999"
   r="8.1999998" />
	<circle
   id="rightElbow"
   cx="289.29999"
   cy="294.39999"
   r="8.1999998" />
	
		<circle
   id="rightWrist"
   transform="matrix(0.9951,-0.09853767,0.09853767,0.9951,-29.0274,13.8698)"
   cx="125.9"
   cy="300.79999"
   r="8.1999998" />
	<circle
   id="rightHip"
   cx="443.10001"
   cy="510.10001"
   r="8.1999998" />
	<circle
   id="rightKnee"
   cx="449.5"
   cy="670.29999"
   r="8.1999998" />
	<circle
   id="rightAnkle"
   cx="449.5"
   cy="878.29999"
   r="8.1999998" />
	<circle
   id="leftShoulder"
   cx="605.70001"
   cy="294.29999"
   r="8.1999998" />
	<circle
   id="leftElbow"
   cx="710.09998"
   cy="294"
   r="8.1999998" />
	<circle
   id="leftWrist"
   cx="873.5"
   cy="300.29999"
   r="8.1999998" />
	<circle
   id="leftHip"
   cx="559.5"
   cy="509.29999"
   r="8.1999998" />
	<circle
   id="leftKnee"
   cx="559.5"
   cy="670.29999"
   r="8.1999998" />
	<circle
   id="leftAnkle"
   cx="559.5"
   cy="878.29999"
   r="8.1999998" />
	<polygon
   style="fill:none;stroke:#000000;stroke-miterlimit:10"
   points="443,510.4 559.4,509.6 605.6,294.6 392.7,294.6 "
   id="polygon886" />
	<polyline
   style="fill:none;stroke:#000000;stroke-miterlimit:10"
   points="391.7,294.6 289,294.6 125.7,300.9  "
   id="polyline888" />
	<polyline
   style="fill:none;stroke:#000000;stroke-miterlimit:10"
   points="607.1,294.2 710.3,294.2 873.6,300.6  "
   id="polyline890" />
	<polyline
   style="fill:none;stroke:#000000;stroke-miterlimit:10"
   points="443,510.4 449.4,670.6 449.4,878.6  "
   id="polyline892" />
	<polyline
   style="fill:none;stroke:#000000;stroke-miterlimit:10"
   points="559.4,509.6 559.4,670.6 559.4,878.6  "
   id="polyline894" />
	<circle
   id="rightEye0"
   cx="468.60001"
   cy="160.2"
   r="0.80000001" />
	<circle
   id="rightBrow1"
   cx="466.39999"
   cy="148.3"
   r="0.80000001" />
	<circle
   id="rightBrow4"
   cx="489.70001"
   cy="151.3"
   r="0.80000001" />
	<circle
   id="nose1"
   cx="497.60001"
   cy="161.2"
   r="0.80000001" />
	<circle
   id="rightBrow3"
   cx="479.89999"
   cy="147.3"
   r="0.80000001" />
	<circle
   id="rightEye1"
   cx="473.79999"
   cy="156.5"
   r="0.80000001" />
	<circle
   id="rightBrow0"
   cx="462.39999"
   cy="152"
   r="0.80000001" />
	<circle
   id="rightBrow2"
   cx="472.60001"
   cy="147.3"
   r="0.80000001" />
	<circle
   id="rightEye5"
   cx="473.79999"
   cy="162.5"
   r="0.80000001" />
	<circle
   id="rightEye2"
   cx="480.10001"
   cy="156.5"
   r="0.80000001" />
	<circle
   id="rightEye3"
   cx="485.29999"
   cy="160.7"
   r="0.80000001" />
	<circle
   id="nose0"
   cx="497.60001"
   cy="155.39999"
   r="0.80000001" />
	<circle
   id="nose3"
   cx="497.60001"
   cy="173.8"
   r="0.80000001" />
	<circle
   id="rightNose0"
   cx="486.89999"
   cy="178.3"
   r="0.80000001" />
	<circle
   id="rightMouthCorner"
   cx="480.89999"
   cy="200.39999"
   r="0.80000001" />
	<circle
   id="rightNose1"
   cx="492.10001"
   cy="178.3"
   r="0.80000001" />
	<circle
   id="rightUpperLipTop0"
   cx="487.79999"
   cy="197"
   r="0.80000001" />
	<circle
   id="nose2"
   cx="497.60001"
   cy="166.7"
   r="0.80000001" />
	<circle
   id="nose4"
   cx="497.60001"
   cy="179.10001"
   r="0.80000001" />
	<circle
   id="upperLipTopMid"
   cx="498.39999"
   cy="196.8"
   r="0.80000001" />
	<circle
   id="rightUpperLipTop1"
   cx="494.29999"
   cy="195.89999"
   r="0.80000001" />
	<path
   id="rightMiddleLip"
   d="m 484.5,199.9 c 0.4,0 0.8,0.4 0.8,0.8 0,0.4 -0.4,0.8 -0.8,0.8 -0.4,0 -0.8,-0.4 -0.8,-0.8 0,-0.4 0.4,-0.8 0.8,-0.8 z" />
	<circle
   id="lowerLipBottomMid"
   cx="498.39999"
   cy="210"
   r="0.80000001" />
	<circle
   id="upperLipBottomMid"
   cx="498.39999"
   cy="200.39999"
   r="0.80000001" />
	<circle
   id="lowerLipTopMid"
   cx="498.39999"
   cy="203.5"
   r="0.80000001" />
	<circle
   id="rightUpperLipBottom1"
   cx="494.5"
   cy="199.89999"
   r="0.80000001" />
	<circle
   id="rightLowerLipTop0"
   cx="494.5"
   cy="202.8"
   r="0.80000001" />
	<circle
   id="rightLowerLipBottom1"
   cx="494.29999"
   cy="209.5"
   r="0.80000001" />
	<circle
   id="rightLowerLipBottom0"
   cx="487.29999"
   cy="206.7"
   r="0.80000001" />
	<circle
   id="rightEye4"
   cx="480.10001"
   cy="161.7"
   r="0.80000001" />
	<circle
   id="jawMid"
   cx="498.39999"
   cy="235.8"
   r="0.80000001" />
	<circle
   id="rightJaw7"
   cx="483.39999"
   cy="232.60001"
   r="0.80000001" />
	<circle
   id="rightJaw6"
   cx="473.39999"
   cy="225.89999"
   r="0.80000001" />
	<circle
   id="rightJaw5"
   cx="461.79999"
   cy="213.39999"
   r="0.80000001" />
	<circle
   id="rightJaw4"
   cx="455"
   cy="193.39999"
   r="0.80000001" />
	<circle
   id="rightJaw3"
   cx="454.20001"
   cy="171.7"
   r="0.80000001" />
	<circle
   id="rightJaw2"
   cx="454.20001"
   cy="162.2"
   r="0.80000001" />
	<circle
   id="rightJaw1"
   cx="455"
   cy="150.5"
   r="0.80000001" />
	<circle
   id="rightJaw0"
   cx="457.5"
   cy="141.2"
   r="0.80000001" />
	<circle
   id="topMid"
   cx="498.60001"
   cy="115.1"
   r="0.80000001" />
	<circle
   id="leftTop0"
   cx="518.29999"
   cy="117.6"
   r="0.80000001" />
	<circle
   id="leftTop1"
   cx="530.90002"
   cy="127.1"
   r="0.80000001" />
	<circle
   id="leftEye0"
   cx="528.20001"
   cy="160.2"
   r="0.80000001" />
	<circle
   id="leftBrow1"
   cx="530.09998"
   cy="148.7"
   r="0.80000001" />
	<circle
   id="leftBrow4"
   cx="506.5"
   cy="150.8"
   r="0.80000001" />
	<circle
   id="leftBrow3"
   cx="516.5"
   cy="147.60001"
   r="0.80000001" />
	<circle
   id="leftEye1"
   cx="523"
   cy="156.5"
   r="0.80000001" />
	<circle
   id="leftBrow0"
   cx="534.09998"
   cy="151.60001"
   r="0.80000001" />
	<circle
   id="leftBrow2"
   cx="523.79999"
   cy="147.2"
   r="0.80000001" />
	<circle
   id="leftEye5"
   cx="523"
   cy="162.5"
   r="0.80000001" />
	<circle
   id="leftEye2"
   cx="516.70001"
   cy="156.5"
   r="0.80000001" />
	<circle
   id="leftEye3"
   cx="511.5"
   cy="160.7"
   r="0.80000001" />
	<circle
   id="leftNose0"
   cx="508"
   cy="178.3"
   r="0.80000001" />
	<circle
   id="leftMouthCorner"
   cx="515.90002"
   cy="200.39999"
   r="0.80000001" />
	<circle
   id="leftNose1"
   cx="503.20001"
   cy="178.3"
   r="0.80000001" />
	<circle
   id="leftUpperLipTop0"
   cx="509"
   cy="197"
   r="0.80000001" />
	<circle
   id="leftUpperLipTop1"
   cx="502.60001"
   cy="195.89999"
   r="0.80000001" />
	<path
   id="leftMiddleLip"
   d="m 512.3,199.9 c 0.4,0 0.8,0.4 0.8,0.8 0,0.4 -0.4,0.8 -0.8,0.8 -0.4,0 -0.8,-0.4 -0.8,-0.8 0,-0.4 0.4,-0.8 0.8,-0.8 z" />
	<circle
   id="leftUpperLipBottom1"
   cx="502.39999"
   cy="199.89999"
   r="0.80000001" />
	<circle
   id="leftLowerLipTop0"
   cx="502.39999"
   cy="202.8"
   r="0.80000001" />
	<circle
   id="leftLowerLipBottom1"
   cx="502.60001"
   cy="209.5"
   r="0.80000001" />
	<circle
   id="leftLowerLipBottom0"
   cx="509.5"
   cy="206.7"
   r="0.80000001" />
	<circle
   id="leftEye4"
   cx="516.70001"
   cy="161.7"
   r="0.80000001" />
	<circle
   id="leftJaw7"
   cx="513.20001"
   cy="233"
   r="0.80000001" />
	<circle
   id="leftJaw6"
   cx="523.20001"
   cy="226.3"
   r="0.80000001" />
	<circle
   id="leftJaw5"
   cx="534.79999"
   cy="213.7"
   r="0.80000001" />
	<circle
   id="leftJaw4"
   cx="541.59998"
   cy="193.7"
   r="0.80000001" />
	<circle
   id="leftJaw3"
   cx="542.40002"
   cy="172.10001"
   r="0.80000001" />
	<circle
   id="leftJaw2"
   cx="542.40002"
   cy="162.5"
   r="0.80000001" />
	<circle
   id="leftJaw1"
   cx="541.59998"
   cy="150.8"
   r="0.80000001" />
	<circle
   id="leftJaw0"
   cx="539.09998"
   cy="141.60001"
   r="0.80000001" />
	<polyline
   style="fill:none;stroke:#000000;stroke-miterlimit:10"
   points="498.4,115.1 478.6,117.6 466.1,127.1 457.5,141.2    455,150.5 454.2,162.2 454.2,171.7 455,193.4 461.8,213.4 473.4,225.9 483.4,232.6 498.4,235.8 513.2,233 523.2,226.3 534.8,213.7    541.6,193.7 542.4,172.1 542.4,162.5 541.6,150.8 539.1,141.6 530.9,127.1 518.3,117.6 498.4,115.1  "
   id="polyline967" />
	<polyline
   style="fill:none;stroke:#000000;stroke-miterlimit:10"
   points="462.4,152 466.4,148.3 472.6,147.3 479.9,147.3    489.7,151.3  "
   id="polyline969" />
	<polygon
   style="fill:none;stroke:#000000;stroke-miterlimit:10"
   points="473.8,156.5 480.1,156.5 485.3,160.7 480.1,161.7 473.8,162.5 468.6,160.2 "
   id="polygon971" />
	<polyline
   style="fill:none;stroke:#000000;stroke-miterlimit:10"
   points="486.9,178.3 492.1,178.3 497.6,179.1 497.6,173.8    497.6,166.7 497.6,161.2 497.6,155.4  "
   id="polyline973" />
	<polyline
   style="fill:none;stroke:#000000;stroke-miterlimit:10"
   points="533.9,151.6 529.9,148.7 523.6,147.2 516.3,147.6    506.3,150.8  "
   id="polyline975" />
	<polygon
   style="fill:none;stroke:#000000;stroke-miterlimit:10"
   points="522.7,156.5 516.4,156.5 511.3,160.7 516.4,161.7 522.7,162.5 528,160.2 "
   id="polygon977" />
	<polyline
   style="fill:none;stroke:#000000;stroke-miterlimit:10"
   points="508,178.3 503,178.3 497.6,179.1  "
   id="polyline979" />
	<polygon
   style="fill:none;stroke:#000000;stroke-miterlimit:10"
   points="487.8,197 494.3,195.9 498.4,196.8 502.6,195.9 509,197 515.9,200.4 509.5,206.7 502.4,209.5 498.4,210 494.3,209.5 487.3,206.7 480.9,200.4 "
   id="polygon981" />
	<polyline
   style="fill:none;stroke:#000000;stroke-miterlimit:10"
   points="480.9,200.4 484.5,200.7 494.5,199.9 498.4,200.4    502.4,199.9 512.3,200.7 515.9,200.4  "
   id="polyline983" />
	<polyline
   style="fill:none;stroke:#000000;stroke-miterlimit:10"
   points="480.9,200.4 484.5,200.7 494.5,202.8 498.4,203.6    502.4,202.8 512.3,200.7 515.9,200.4  "
   id="polyline985" />
	<circle
   id="rightTop0"
   cx="478.70001"
   cy="117.6"
   r="0.80000001" />
	<circle
   id="rightTop1"
   cx="466.10001"
   cy="127.1"
   r="0.80000001" />
</g>
</svg>
