<?xml version="1.0" encoding="UTF-8" standalone="no" ?>
<!DOCTYPE svg PUBLIC "-//W3C//DTD SVG 1.1//EN" "http://www.w3.org/Graphics/SVG/1.1/DTD/svg11.dtd">
<svg xmlns="http://www.w3.org/2000/svg" xmlns:xlink="http://www.w3.org/1999/xlink" version="1.1" width="640" height="640" viewBox="0 0 640 640" xml:space="preserve">
<desc>Created with Fabric.js 4.6.0</desc>
<defs>
</defs>
<g transform="matrix(1 0 0 1 156.48 222.99)" id="7s9FxvAkSsGv9PlB4EeSz"  >
<path style="stroke: rgb(0,0,0); stroke-width: 0; stroke-dasharray: none; stroke-linecap: butt; stroke-dashoffset: 0; stroke-linejoin: miter; stroke-miterlimit: 4; fill: rgb(82,82,82); fill-rule: nonzero; opacity: 1;" vector-effect="non-scaling-stroke"  transform=" translate(0, 0)" d="M -29.77344 -211.57352 L -128.70329 -117.20967 L -128.70329 211.57351999999997 L 128.70327 211.57351999999997 L 128.70327 -130.17973 L -36.63865999999999 -130.17973 L 12.965890000000016 -179.78428000000002 z" stroke-linecap="round" />
</g>
<g transform="matrix(1 0 0 1 156.84 221.45)" id="6Nftmn6N0vXEkC7whI2YI"  >
<path style="stroke: rgb(0,0,0); stroke-width: 0; stroke-dasharray: none; stroke-linecap: butt; stroke-dashoffset: 0; stroke-linejoin: miter; stroke-miterlimit: 4; fill: rgb(218,218,218); fill-rule: nonzero; opacity: 1;" vector-effect="non-scaling-stroke"  transform=" translate(0, 0)" d="M -28.61598 -195.57716 L -111.56485 -114.15029 L -111.56485 195.57716 L 111.56485 195.57716 L 111.56485 -114.15028999999998 L -73.51647 -114.15028999999998 L -8.395759999999996 -179.271 z" stroke-linecap="round" />
</g>
<g transform="matrix(1 0 0 1 154.87 174.31)" id="BTz43Crc_NCDUUl9QPf0x"  >
<path style="stroke: rgb(0,0,0); stroke-width: 0; stroke-dasharray: none; stroke-linecap: butt; stroke-dashoffset: 0; stroke-linejoin: miter; stroke-miterlimit: 4; fill: rgb(82,82,82); fill-rule: nonzero; opacity: 1;" vector-effect="non-scaling-stroke"  transform=" translate(0, 0)" d="M -73.82125 -27.4382 L -73.82125 27.4382 L 73.82125999999998 27.4382 L 73.82125999999998 -27.4382 z" stroke-linecap="round" />
</g>
<g transform="matrix(1 0 0 1 154.87 255.08)" id="SWczpDGhFsfTewaxAzGad"  >
<path style="stroke: rgb(0,0,0); stroke-width: 0; stroke-dasharray: none; stroke-linecap: butt; stroke-dashoffset: 0; stroke-linejoin: miter; stroke-miterlimit: 4; fill: rgb(82,82,82); fill-rule: nonzero; opacity: 1;" vector-effect="non-scaling-stroke"  transform=" translate(0, 0)" d="M -73.82125 -27.4382 L -73.82125 27.4382 L 73.82125999999998 27.4382 L 73.82125999999998 -27.4382 z" stroke-linecap="round" />
</g>
<g transform="matrix(1 0 0 1 154.87 338.9)" id="CuFY-NMgAf_Si8C2_sCTV"  >
<path style="stroke: rgb(0,0,0); stroke-width: 0; stroke-dasharray: none; stroke-linecap: butt; stroke-dashoffset: 0; stroke-linejoin: miter; stroke-miterlimit: 4; fill: rgb(82,82,82); fill-rule: nonzero; opacity: 1;" vector-effect="non-scaling-stroke"  transform=" translate(0, 0)" d="M -73.82125 -27.4382 L -73.82125 27.4382 L 73.82125999999998 27.4382 L 73.82125999999998 -27.4382 z" stroke-linecap="round" />
</g>
<g transform="matrix(1 0 0 1 461.16 425.82)" id="_QUHlXDc6KAIhnZAg7v3t"  >
<path style="stroke: rgb(0,0,0); stroke-width: 0; stroke-dasharray: none; stroke-linecap: butt; stroke-dashoffset: 0; stroke-linejoin: miter; stroke-miterlimit: 4; fill: rgb(218,218,218); fill-rule: nonzero; opacity: 1;" vector-effect="non-scaling-stroke"  transform=" translate(0, 0)" d="M -39.94751 -75.68714 L -39.94751 -186.09755 L 40.75254999999999 -186.09755 L 40.75254999999999 -75.68714000000001 L 132.03823 -75.68714000000001 L 132.03823 186.09756 L -132.03822000000002 186.09756 L -132.03822000000002 -75.68714 z" stroke-linecap="round" />
</g>
<g transform="matrix(1 0 0 1 459.02 425.13)" id="ukKoqv-HjdoMpzcj8ABWC"  >
<path style="stroke: rgb(0,0,0); stroke-width: 0; stroke-dasharray: none; stroke-linecap: butt; stroke-dashoffset: 0; stroke-linejoin: miter; stroke-miterlimit: 4; fill: rgb(82,82,82); fill-rule: nonzero; opacity: 1;" vector-effect="non-scaling-stroke"  transform=" translate(0, 0)" d="M -114.66359 170.0471 L -114.66359 -53.90517 L -17.233869999999996 -53.90517 L -17.233869999999996 -170.04709 L 20.827600000000004 -170.04709 L 20.827600000000004 -53.90517 L 114.66359 -53.90517 L 114.66359 170.0471 z" stroke-linecap="round" />
</g>
<g transform="matrix(1 0 0 1 404.48 425.82)" id="yff7lVOznNLAnpEkAl6_M"  >
<path style="stroke: rgb(0,0,0); stroke-width: 0; stroke-dasharray: none; stroke-linecap: butt; stroke-dashoffset: 0; stroke-linejoin: miter; stroke-miterlimit: 4; fill: rgb(218,218,218); fill-rule: nonzero; opacity: 1;" vector-effect="non-scaling-stroke"  transform=" translate(0, 0)" d="M -34.2534 -30.8786 L 34.2534 -30.8786 L 34.2534 30.878590000000003 L -34.2534 30.878590000000003 z" stroke-linecap="round" />
</g>
<g transform="matrix(1 0 0 1 513.41 425.82)" id="b5FeQCY2pL6esA3Hu4q0d"  >
<path style="stroke: rgb(0,0,0); stroke-width: 0; stroke-dasharray: none; stroke-linecap: butt; stroke-dashoffset: 0; stroke-linejoin: miter; stroke-miterlimit: 4; fill: rgb(218,218,218); fill-rule: nonzero; opacity: 1;" vector-effect="non-scaling-stroke"  transform=" translate(0, 0)" d="M -34.2534 -30.8786 L 34.2534 -30.8786 L 34.2534 30.878590000000003 L -34.2534 30.878590000000003 z" stroke-linecap="round" />
</g>
<g transform="matrix(1 0 0 1 404.48 540.84)" id="zfQITJX0dToNGkqv4DlCP"  >
<path style="stroke: rgb(0,0,0); stroke-width: 0; stroke-dasharray: none; stroke-linecap: butt; stroke-dashoffset: 0; stroke-linejoin: miter; stroke-miterlimit: 4; fill: rgb(218,218,218); fill-rule: nonzero; opacity: 1;" vector-effect="non-scaling-stroke"  transform=" translate(0, 0)" d="M -34.2534 -30.8786 L 34.2534 -30.8786 L 34.2534 30.878590000000003 L -34.2534 30.878590000000003 z" stroke-linecap="round" />
</g>
<g transform="matrix(1 0 0 1 513.41 540.84)" id="S0v-jcPY_I3cbLorC-JV8"  >
<path style="stroke: rgb(0,0,0); stroke-width: 0; stroke-dasharray: none; stroke-linecap: butt; stroke-dashoffset: 0; stroke-linejoin: miter; stroke-miterlimit: 4; fill: rgb(218,218,218); fill-rule: nonzero; opacity: 1;" vector-effect="non-scaling-stroke"  transform=" translate(0, 0)" d="M -34.2534 -30.8786 L 34.2534 -30.8786 L 34.2534 30.878590000000003 L -34.2534 30.878590000000003 z" stroke-linecap="round" />
</g>
</svg>